<svg viewBox="0 0 1000 1000" xmlns="http://www.w3.org/2000/svg"><defs><linearGradient id="b"><stop offset="0%" stop-color="#2028eb"/><stop offset="100%" stop-color="#2f436a"/></linearGradient><clipPath id="a"><path fill="currentColor" d="M875.5 617.5q-51.5 117.5-172 128T488 793q-95 37-195.5-16.5T144 611.5Q96 500 176.5 412t139-193q58.5-105 163-39.5t246 60Q866 234 896.5 367t-21 250.5Z"/></clipPath></defs><g clip-path="url(#a)"><path fill="url(#b)" d="M875.5 617.5q-51.5 117.5-172 128T488 793q-95 37-195.5-16.5T144 611.5Q96 500 176.5 412t139-193q58.5-105 163-39.5t246 60Q866 234 896.5 367t-21 250.5Z"/></g></svg>